<?xml version="1.0" encoding="UTF-8" standalone="no"?>
<svg
   xmlns:dc="http://purl.org/dc/elements/1.1/"
   xmlns:cc="http://creativecommons.org/ns#"
   xmlns:rdf="http://www.w3.org/1999/02/22-rdf-syntax-ns#"
   xmlns:svg="http://www.w3.org/2000/svg"
   xmlns="http://www.w3.org/2000/svg"
   xmlns:sodipodi="http://sodipodi.sourceforge.net/DTD/sodipodi-0.dtd"
   xmlns:inkscape="http://www.inkscape.org/namespaces/inkscape"
   version="1.1"
   viewBox="0 0 408 143.99998"
   stroke-miterlimit="10"
   id="svg2"
   inkscape:version="0.48.5 r10040"
   width="100%"
   height="100%"
   sodipodi:docname="slideshow-2.svg"
   style="fill:none;stroke:none">
  <metadata
     id="metadata27">
    <rdf:RDF>
      <cc:Work
         rdf:about="">
        <dc:format>image/svg+xml</dc:format>
        <dc:type
           rdf:resource="http://purl.org/dc/dcmitype/StillImage" />
      </cc:Work>
    </rdf:RDF>
  </metadata>
  <defs
     id="defs25" />
  <sodipodi:namedview
     pagecolor="#ffffff"
     bordercolor="#666666"
     borderopacity="1"
     objecttolerance="10"
     gridtolerance="10"
     guidetolerance="10"
     inkscape:pageopacity="0"
     inkscape:pageshadow="2"
     inkscape:window-width="1920"
     inkscape:window-height="1005"
     id="namedview23"
     showgrid="false"
     fit-margin-top="0"
     fit-margin-left="0"
     fit-margin-right="0"
     fit-margin-bottom="0"
     inkscape:zoom="1.2291667"
     inkscape:cx="591.67283"
     inkscape:cy="100.08443"
     inkscape:window-x="1071"
     inkscape:window-y="831"
     inkscape:window-maximized="1"
     inkscape:current-layer="svg2" />
  <clipPath
     id="p.0">
    <path
       d="m 0,0 1024,0 0,768 L 0,768 0,0 z"
       clip-rule="nonzero"
       id="path5"
       inkscape:connector-curvature="0" />
  </clipPath>
  <g
     id="g3011"
     transform="translate(-287,-222.1811)">
    <path
       d="m 287,222.1811 408,0 0,143.99998 -408,0 z"
       id="path11"
       inkscape:connector-curvature="0"
       style="fill:#434343;fill-rule:nonzero" />
    <path
       d="m 297.40625,245.56985 6.625,-3.17188 -6.625,-3.17187 0,-1.48438 8.5625,4.17188 0,0.95312 -8.5625,4.1875 0,-1.48437 z m 29.21927,3.53125 0,-6.5625 q 0,-2.40625 -2.21875,-2.40625 -2.84375,0 -2.84375,3.6875 l 0,5.28125 -1.6875,0 0,-10.1875 1.35937,0 0.25,1.375 0.0937,0 q 0.95313,-1.5625 3.125,-1.5625 3.60938,0 3.60938,3.71875 l 0,6.65625 -1.6875,0 z m 6.11746,-1.29688 -0.10937,0 q 0.10937,1.20313 0.10937,1.51563 l 0,4.34375 -1.6875,0 0,-14.75 1.35938,0 0.25,1.375 0.0781,0 q 1.01563,-1.5625 2.98438,-1.5625 1.85937,0 2.92187,1.39062 1.0625,1.39063 1.0625,3.875 0,2.5 -1.0625,3.90625 -1.0625,1.39063 -2.92187,1.39063 -1.92188,0 -2.98438,-1.48438 z m 0,-4.20312 0,0.39062 q 0,2.10938 0.64063,3 0.64062,0.89063 2.0625,0.89063 2.51562,0 2.51562,-3.90625 0,-3.84375 -2.54687,-3.84375 -1.40625,0 -2.03125,0.8125 -0.60938,0.8125 -0.64063,2.65625 z m 17.10181,5.5 0,-6.5625 q 0,-1.34375 -0.25,-1.875 -0.23438,-0.53125 -0.8125,-0.53125 -0.8125,0 -1.1875,0.76562 -0.35938,0.76563 -0.35938,2.57813 l 0,5.625 -1.48437,0 0,-6.5625 q 0,-2.40625 -1.17188,-2.40625 -0.76562,0 -1.10937,0.73437 -0.32813,0.73438 -0.32813,2.95313 l 0,5.28125 -1.5,0 0,-10.1875 1.17188,0 0.25,1.375 0.0937,0 q 0.625,-1.5625 1.85937,-1.5625 1.51563,0 1.98438,1.6875 l 0.0469,0 q 0.71875,-1.6875 2.03125,-1.6875 1.1875,0 1.71875,0.85937 0.54688,0.85938 0.54688,2.85938 l 0,6.65625 -1.5,0 z m 19.20364,-14.375 q 0.98438,0 0.98438,1.04687 0,0.54688 -0.29688,0.8125 -0.29687,0.26563 -0.6875,0.26563 -1,0 -1,-1.07813 0,-1.04687 1,-1.04687 z m -0.85937,5.53125 -2.48438,-0.20313 0,-1.14062 4.17188,0 0,8.85937 3.26562,0.1875 0,1.14063 -8.14062,0 0,-1.14063 3.1875,-0.1875 0,-7.51562 z m 14.41433,8.84375 0,-6.5625 q 0,-2.40625 -2.21875,-2.40625 -2.84375,0 -2.84375,3.6875 l 0,5.28125 -1.6875,0 0,-10.1875 1.35938,0 0.25,1.375 0.0937,0 q 0.95312,-1.5625 3.125,-1.5625 3.60937,0 3.60937,3.71875 l 0,6.65625 -1.6875,0 z m 4.85181,-0.45313 0,-1.54687 q 1.78125,0.79687 3.42188,0.79687 2.5625,0 2.5625,-1.5 0,-0.53125 -0.46875,-0.92187 -0.45313,-0.39063 -2.09375,-0.98438 -2.15625,-0.79687 -2.71875,-1.46875 -0.5625,-0.67187 -0.5625,-1.59375 0,-1.26562 1.03125,-1.98437 1.03125,-0.71875 2.85937,-0.71875 1.84375,0 3.4375,0.6875 l -0.5625,1.39062 q -1.6875,-0.67187 -2.96875,-0.67187 -2.1875,0 -2.1875,1.23437 0,0.5625 0.46875,0.90625 0.46875,0.32813 2.15625,0.9375 1.96875,0.71875 2.60938,1.40625 0.64062,0.6875 0.64062,1.6875 0,1.39063 -1.09375,2.1875 -1.07812,0.79688 -3.0625,0.79688 -2.29687,0 -3.46875,-0.64063 z m 18.77368,-0.9375 0,1.28125 q -1.21875,0.29688 -2.34375,0.29688 -3.35937,0 -3.35937,-3.1875 l 0,-5.92188 -2.46875,0 0,-0.85937 2.46875,-0.46875 0.71875,-2.65625 0.96875,0 0,2.71875 4.0625,0 0,1.26562 -4.0625,0 0,5.92188 q 0,1.79687 1.78125,1.79687 0.85937,0 2.23437,-0.1875 z m 10.02371,1.39063 -0.34375,-1.40625 -0.0625,0 q -0.71875,0.89062 -1.46875,1.25 -0.75,0.34375 -1.9375,0.34375 -1.51562,0 -2.375,-0.79688 -0.85937,-0.79687 -0.85937,-2.23437 0,-3.07813 4.73437,-3.23438 l 1.89063,-0.0625 0,-0.64062 q 0,-2.1875 -2.26563,-2.1875 -1.375,0 -3.04687,0.76562 l -0.59375,-1.28125 q 1.82812,-0.89062 3.5625,-0.89062 2.10937,0 3.04687,0.8125 0.9375,0.79687 0.9375,2.57812 l 0,6.98438 -1.21875,0 z m -0.45312,-4.98438 -1.5,0.0625 q -1.8125,0.0781 -2.57813,0.57813 -0.76562,0.5 -0.76562,1.51562 0,1.65625 1.85937,1.65625 1.35938,0 2.17188,-0.75 0.8125,-0.76562 0.8125,-2.14062 l 0,-0.92188 z m 8.28934,-8.125 -2.48438,-0.1875 0,-1.14062 4.1875,0 0,13.10937 3.26563,0.1875 0,1.14063 -8.15625,0 0,-1.14063 3.1875,-0.1875 0,-11.78125 z m 11.19555,0 -2.48437,-0.1875 0,-1.14062 4.1875,0 0,13.10937 3.26562,0.1875 0,1.14063 -8.15625,0 0,-1.14063 3.1875,-0.1875 0,-11.78125 z m 20.09427,8.79688 0,-1.5625 6.125,0 0,1.5625 -6.125,0 z m 19.00809,-5.875 0,1.04687 -1.82813,0.25 q 0.60938,0.79688 0.60938,1.98438 0,1.48437 -1,2.375 -0.98438,0.89062 -2.73438,0.89062 -0.51562,0 -0.8125,-0.0625 -0.92187,0.51563 -0.92187,1.23438 0,0.78125 1.5,0.78125 l 1.73437,0 q 1.60938,0 2.45313,0.71875 0.85937,0.70312 0.85937,2.03125 0,3.5 -5.23437,3.5 -2.03125,0 -3.07813,-0.75 -1.04687,-0.73438 -1.04687,-2.09375 0,-1.95313 2.21875,-2.5 -0.89063,-0.4375 -0.89063,-1.42188 0,-1.04687 1.23438,-1.78125 -0.82813,-0.34375 -1.29688,-1.14062 -0.46875,-0.79688 -0.46875,-1.73438 0,-1.6875 0.98438,-2.59375 0.98437,-0.92187 2.8125,-0.92187 0.79687,0 1.39062,0.1875 l 3.51563,0 z m -4.9375,5.375 q 2.0625,0 2.0625,-2.125 0,-2.21875 -2.07813,-2.21875 -2.09375,0 -2.09375,2.25 0,2.09375 2.10938,2.09375 z m 0.90625,4.64062 -1.75,0 q -2.125,0 -2.125,1.84375 0,1.60938 2.51562,1.60938 3.65625,0 3.65625,-2.0625 0,-0.8125 -0.46875,-1.10938 -0.45312,-0.28125 -1.82812,-0.28125 z m 19.12549,-1.125 -0.10938,0 q 0.10938,1.20313 0.10938,1.51563 l 0,4.34375 -1.6875,0 0,-14.75 1.35937,0 0.25,1.375 0.0781,0 q 1.01562,-1.5625 2.98437,-1.5625 1.85938,0 2.92188,1.39062 1.0625,1.39063 1.0625,3.875 0,2.5 -1.0625,3.90625 -1.0625,1.39063 -2.92188,1.39063 -1.92187,0 -2.98437,-1.48438 z m 0,-4.20312 0,0.39062 q 0,2.10938 0.64062,3 0.64063,0.89063 2.0625,0.89063 2.51563,0 2.51563,-3.90625 0,-3.84375 -2.54688,-3.84375 -1.40625,0 -2.03125,0.8125 -0.60937,0.8125 -0.64062,2.65625 z m 16.33621,5.5 -0.34375,-1.40625 -0.0625,0 q -0.71875,0.89062 -1.46875,1.25 -0.75,0.34375 -1.9375,0.34375 -1.51563,0 -2.375,-0.79688 -0.85938,-0.79687 -0.85938,-2.23437 0,-3.07813 4.73438,-3.23438 l 1.89062,-0.0625 0,-0.64062 q 0,-2.1875 -2.26562,-2.1875 -1.375,0 -3.04688,0.76562 l -0.59375,-1.28125 q 1.82813,-0.89062 3.5625,-0.89062 2.10938,0 3.04688,0.8125 0.9375,0.79687 0.9375,2.57812 l 0,6.98438 -1.21875,0 z m -0.45313,-4.98438 -1.5,0.0625 q -1.8125,0.0781 -2.57812,0.57813 -0.76563,0.5 -0.76563,1.51562 0,1.65625 1.85938,1.65625 1.35937,0 2.17187,-0.75 0.8125,-0.76562 0.8125,-2.14062 l 0,-0.92188 z m 11.58622,4.98438 0,-6.5625 q 0,-2.40625 -2.21875,-2.40625 -2.84375,0 -2.84375,3.6875 l 0,5.28125 -1.6875,0 0,-10.1875 1.35937,0 0.25,1.375 0.0937,0 q 0.95313,-1.5625 3.125,-1.5625 3.60938,0 3.60938,3.71875 l 0,6.65625 -1.6875,0 z m 11.25805,0 -0.34375,-1.40625 -0.0625,0 q -0.71875,0.89062 -1.46875,1.25 -0.75,0.34375 -1.9375,0.34375 -1.51562,0 -2.375,-0.79688 -0.85937,-0.79687 -0.85937,-2.23437 0,-3.07813 4.73437,-3.23438 l 1.89063,-0.0625 0,-0.64062 q 0,-2.1875 -2.26563,-2.1875 -1.375,0 -3.04687,0.76562 l -0.59375,-1.28125 q 1.82812,-0.89062 3.5625,-0.89062 2.10937,0 3.04687,0.8125 0.9375,0.79687 0.9375,2.57812 l 0,6.98438 -1.21875,0 z m -0.45312,-4.98438 -1.5,0.0625 q -1.8125,0.0781 -2.57813,0.57813 -0.76562,0.5 -0.76562,1.51562 0,1.65625 1.85937,1.65625 1.35938,0 2.17188,-0.75 0.8125,-0.76562 0.8125,-2.14062 l 0,-0.92188 z m 8.08618,-0.23437 -3.65625,-4.96875 1.92188,0 2.70312,3.79687 2.6875,-3.79687 1.92188,0 -3.65625,4.96875 3.82812,5.21875 -1.90625,0 -2.875,-4.04688 -2.89062,4.04688 -1.92188,0 3.84375,-5.21875 z"
       id="path13"
       inkscape:connector-curvature="0"
       style="fill:#f3f3f3;fill-rule:nonzero" />
    <path
       d="m 297.40625,271.56985 6.625,-3.17188 -6.625,-3.17187 0,-1.48438 8.5625,4.17188 0,0.95312 -8.5625,4.1875 0,-1.48437 z m 24.14114,2.23437 -0.10937,0 q 0.10937,1.20313 0.10937,1.51563 l 0,4.34375 -1.6875,0 0,-14.75 1.35938,0 0.25,1.375 0.0781,0 q 1.01563,-1.5625 2.98438,-1.5625 1.85937,0 2.92187,1.39062 1.0625,1.39063 1.0625,3.875 0,2.5 -1.0625,3.90625 -1.0625,1.39063 -2.92187,1.39063 -1.92188,0 -2.98438,-1.48438 z m 0,-4.20312 0,0.39062 q 0,2.10938 0.64063,3 0.64062,0.89063 2.0625,0.89063 2.51562,0 2.51562,-3.90625 0,-3.84375 -2.54687,-3.84375 -1.40625,0 -2.03125,0.8125 -0.60938,0.8125 -0.64063,2.65625 z m 16.33622,5.5 -0.34375,-1.40625 -0.0625,0 q -0.71875,0.89062 -1.46875,1.25 -0.75,0.34375 -1.9375,0.34375 -1.51563,0 -2.375,-0.79688 -0.85938,-0.79687 -0.85938,-2.23437 0,-3.07813 4.73438,-3.23438 l 1.89062,-0.0625 0,-0.64062 q 0,-2.1875 -2.26562,-2.1875 -1.375,0 -3.04688,0.76562 l -0.59375,-1.28125 q 1.82813,-0.89062 3.5625,-0.89062 2.10938,0 3.04688,0.8125 0.9375,0.79687 0.9375,2.57812 l 0,6.98438 -1.21875,0 z m -0.45313,-4.98438 -1.5,0.0625 q -1.8125,0.0781 -2.57812,0.57813 -0.76563,0.5 -0.76563,1.51562 0,1.65625 1.85938,1.65625 1.35937,0 2.17187,-0.75 0.8125,-0.76562 0.8125,-2.14062 l 0,-0.92188 z m 11.58618,4.98438 0,-6.5625 q 0,-2.40625 -2.21875,-2.40625 -2.84375,0 -2.84375,3.6875 l 0,5.28125 -1.6875,0 0,-10.1875 1.35938,0 0.25,1.375 0.0937,0 q 0.95312,-1.5625 3.125,-1.5625 3.60937,0 3.60937,3.71875 l 0,6.65625 -1.6875,0 z m 11.25806,0 -0.34375,-1.40625 -0.0625,0 q -0.71875,0.89062 -1.46875,1.25 -0.75,0.34375 -1.9375,0.34375 -1.51563,0 -2.375,-0.79688 -0.85938,-0.79687 -0.85938,-2.23437 0,-3.07813 4.73438,-3.23438 l 1.89062,-0.0625 0,-0.64062 q 0,-2.1875 -2.26562,-2.1875 -1.375,0 -3.04688,0.76562 l -0.59375,-1.28125 q 1.82813,-0.89062 3.5625,-0.89062 2.10938,0 3.04688,0.8125 0.9375,0.79687 0.9375,2.57812 l 0,6.98438 -1.21875,0 z m -0.45313,-4.98438 -1.5,0.0625 q -1.8125,0.0781 -2.57812,0.57813 -0.76563,0.5 -0.76563,1.51562 0,1.65625 1.85938,1.65625 1.35937,0 2.17187,-0.75 0.8125,-0.76562 0.8125,-2.14062 l 0,-0.92188 z m 8.08622,-0.23437 -3.65625,-4.96875 1.92187,0 2.70313,3.79687 2.6875,-3.79687 1.92187,0 -3.65625,4.96875 3.82813,5.21875 -1.90625,0 -2.875,-4.04688 -2.89063,4.04688 -1.92187,0 3.84375,-5.21875 z m 25.98489,3.85937 -0.0781,0 q -1.04688,1.54688 -2.98438,1.54688 -1.875,0 -2.9375,-1.39063 -1.0625,-1.39062 -1.0625,-3.875 0,-2.5 1.0625,-3.89062 1.07813,-1.40625 2.9375,-1.40625 1.90625,0 2.98438,1.48437 l 0.10937,0 q -0.10937,-1.1875 -0.10937,-1.5 l 0,-4.04687 1.6875,0 0,14.4375 -1.35938,0 -0.25,-1.35938 z m -0.0781,-3.32812 0,-0.39063 q 0,-2.10937 -0.65625,-3 -0.64063,-0.89062 -2.04688,-0.89062 -2.51562,0 -2.51562,3.90625 0,3.84375 2.53125,3.84375 1.42187,0 2.03125,-0.8125 0.60937,-0.82813 0.65625,-2.65625 z m 6.1018,3.39062 -0.10937,0 -0.34375,1.29688 -1.23438,0 0,-14.4375 1.6875,0 0,3.48437 q 0,0.75 -0.0781,2.10938 l 0.0781,0 q 0.98438,-1.53125 2.98438,-1.53125 1.85937,0 2.92187,1.39062 1.0625,1.39063 1.0625,3.875 0,2.5 -1.0625,3.90625 -1.0625,1.39063 -2.92187,1.39063 -1.92188,0 -2.98438,-1.48438 z m 0,-3.8125 q 0,2.10938 0.64063,3 0.64062,0.89063 2.0625,0.89063 2.51562,0 2.51562,-3.90625 0,-3.84375 -2.54687,-3.84375 -1.4375,0 -2.0625,0.875 -0.60938,0.85937 -0.60938,2.98437 z m 22.39118,3.8125 -0.10938,0 -0.34375,1.29688 -1.23437,0 0,-14.4375 1.6875,0 0,3.48437 q 0,0.75 -0.0781,2.10938 l 0.0781,0 q 0.98437,-1.53125 2.98437,-1.53125 1.85938,0 2.92188,1.39062 1.0625,1.39063 1.0625,3.875 0,2.5 -1.0625,3.90625 -1.0625,1.39063 -2.92188,1.39063 -1.92187,0 -2.98437,-1.48438 z m 0,-3.8125 q 0,2.10938 0.64062,3 0.64063,0.89063 2.0625,0.89063 2.51563,0 2.51563,-3.90625 0,-3.84375 -2.54688,-3.84375 -1.4375,0 -2.0625,0.875 -0.60937,0.85937 -0.60937,2.98437 z m 16.58618,5.10938 -0.25,-1.35938 -0.0937,0 q -0.96875,1.54688 -3.09375,1.54688 -3.625,0 -3.625,-3.71875 l 0,-6.65625 1.6875,0 0,6.5625 q 0,2.40625 2.1875,2.40625 1.5,0 2.1875,-0.85938 0.6875,-0.85937 0.6875,-2.82812 l 0,-5.28125 1.6875,0 0,10.1875 -1.375,0 z m 8.52368,-14.375 q 0.98438,0 0.98438,1.04687 0,0.54688 -0.29688,0.8125 -0.29687,0.26563 -0.6875,0.26563 -1,0 -1,-1.07813 0,-1.04687 1,-1.04687 z m -0.85937,5.53125 -2.48438,-0.20313 0,-1.14062 4.17188,0 0,8.85937 3.26562,0.1875 0,1.14063 -8.14062,0 0,-1.14063 3.1875,-0.1875 0,-7.51562 z m 11.11746,-4.26563 -2.48438,-0.1875 0,-1.14062 4.1875,0 0,13.10937 3.26563,0.1875 0,1.14063 -8.15625,0 0,-1.14063 3.1875,-0.1875 0,-11.78125 z m 14.58621,11.75 -0.0781,0 q -1.04687,1.54688 -2.98437,1.54688 -1.875,0 -2.9375,-1.39063 -1.0625,-1.39062 -1.0625,-3.875 0,-2.5 1.0625,-3.89062 1.07812,-1.40625 2.9375,-1.40625 1.90625,0 2.98437,1.48437 l 0.10938,0 q -0.10938,-1.1875 -0.10938,-1.5 l 0,-4.04687 1.6875,0 0,14.4375 -1.35937,0 -0.25,-1.35938 z m -0.0781,-3.32812 0,-0.39063 q 0,-2.10937 -0.65625,-3 -0.64062,-0.89062 -2.04687,-0.89062 -2.51563,0 -2.51563,3.90625 0,3.84375 2.53125,3.84375 1.42188,0 2.03125,-0.8125 0.60938,-0.82813 0.65625,-2.65625 z"
       id="path15"
       inkscape:connector-curvature="0"
       style="fill:#f3f3f3;fill-rule:nonzero" />
    <path
       d="m 297.25,301.1011 0,-13.5625 3.17187,0 q 2.9375,0 4.57813,1.75 1.64062,1.75 1.64062,4.90625 0,3.34375 -1.70312,5.125 -1.6875,1.78125 -4.89063,1.78125 l -2.79687,0 z m 1.73437,-12.09375 0,10.60937 0.89063,0 q 4.9375,0 4.9375,-5.375 0,-5.23437 -4.57813,-5.23437 l -1.25,0 z m 13.92994,12.28125 q -4.9375,0 -4.9375,-7 0,-6.96875 4.95312,-6.96875 2.375,0 3.64063,1.8125 1.26562,1.8125 1.26562,5.17187 0,3.34375 -1.28125,5.17188 -1.28125,1.8125 -3.64062,1.8125 z m 0,-1.51563 q 1.59375,0 2.34375,-1.34375 0.75,-1.34375 0.75,-4.125 0,-2.8125 -0.76563,-4.125 -0.75,-1.32812 -2.3125,-1.32812 -3.125,0 -3.125,5.45312 0,5.46875 3.10938,5.46875 z m 15.60183,1.32813 -1.98437,0 -5.39063,-11.21875 -0.0625,0 q 0.15625,2.5625 0.15625,3.85937 l 0,7.35938 -1.59375,0 0,-13.5625 1.98438,0 5.35937,11.17187 0.0469,0 q -0.125,-2.8125 -0.125,-3.75 l 0,-7.42187 1.60937,0 0,13.5625 z m 10.89872,0 -7.8125,0 0,-13.5625 7.8125,0 0,1.51562 -6.09375,0 0,4.20313 5.73437,0 0,1.5 -5.73437,0 0,4.82812 6.09375,0 0,1.51563 z m 7.63305,-3.84375 -1.10937,0 -0.48438,-9.71875 2.07813,0 -0.48438,9.71875 z m -0.5625,1.53125 q 1.17188,0 1.17188,1.28125 0,1.29687 -1.17188,1.29687 -1.1875,0 -1.1875,-1.29687 0,-1.28125 1.1875,-1.28125 z"
       id="path17"
       inkscape:connector-curvature="0"
       style="fill:#b6d7a8;fill-rule:nonzero" />
    <path
       d="m 297.40625,323.56985 6.625,-3.17188 -6.625,-3.17187 0,-1.48438 8.5625,4.17188 0,0.95312 -8.5625,4.1875 0,-1.48437 z m 24.14114,2.23437 -0.10937,0 q 0.10937,1.20313 0.10937,1.51563 l 0,4.34375 -1.6875,0 0,-14.75 1.35938,0 0.25,1.375 0.0781,0 q 1.01563,-1.5625 2.98438,-1.5625 1.85937,0 2.92187,1.39062 1.0625,1.39063 1.0625,3.875 0,2.5 -1.0625,3.90625 -1.0625,1.39063 -2.92187,1.39063 -1.92188,0 -2.98438,-1.48438 z m 0,-4.20312 0,0.39062 q 0,2.10938 0.64063,3 0.64062,0.89063 2.0625,0.89063 2.51562,0 2.51562,-3.90625 0,-3.84375 -2.54687,-3.84375 -1.40625,0 -2.03125,0.8125 -0.60938,0.8125 -0.64063,2.65625 z m 16.33622,5.5 -0.34375,-1.40625 -0.0625,0 q -0.71875,0.89062 -1.46875,1.25 -0.75,0.34375 -1.9375,0.34375 -1.51563,0 -2.375,-0.79688 -0.85938,-0.79687 -0.85938,-2.23437 0,-3.07813 4.73438,-3.23438 l 1.89062,-0.0625 0,-0.64062 q 0,-2.1875 -2.26562,-2.1875 -1.375,0 -3.04688,0.76562 l -0.59375,-1.28125 q 1.82813,-0.89062 3.5625,-0.89062 2.10938,0 3.04688,0.8125 0.9375,0.79687 0.9375,2.57812 l 0,6.98438 -1.21875,0 z m -0.45313,-4.98438 -1.5,0.0625 q -1.8125,0.0781 -2.57812,0.57813 -0.76563,0.5 -0.76563,1.51562 0,1.65625 1.85938,1.65625 1.35937,0 2.17187,-0.75 0.8125,-0.76562 0.8125,-2.14062 l 0,-0.92188 z m 11.58618,4.98438 0,-6.5625 q 0,-2.40625 -2.21875,-2.40625 -2.84375,0 -2.84375,3.6875 l 0,5.28125 -1.6875,0 0,-10.1875 1.35938,0 0.25,1.375 0.0937,0 q 0.95312,-1.5625 3.125,-1.5625 3.60937,0 3.60937,3.71875 l 0,6.65625 -1.6875,0 z m 11.25806,0 -0.34375,-1.40625 -0.0625,0 q -0.71875,0.89062 -1.46875,1.25 -0.75,0.34375 -1.9375,0.34375 -1.51563,0 -2.375,-0.79688 -0.85938,-0.79687 -0.85938,-2.23437 0,-3.07813 4.73438,-3.23438 l 1.89062,-0.0625 0,-0.64062 q 0,-2.1875 -2.26562,-2.1875 -1.375,0 -3.04688,0.76562 l -0.59375,-1.28125 q 1.82813,-0.89062 3.5625,-0.89062 2.10938,0 3.04688,0.8125 0.9375,0.79687 0.9375,2.57812 l 0,6.98438 -1.21875,0 z m -0.45313,-4.98438 -1.5,0.0625 q -1.8125,0.0781 -2.57812,0.57813 -0.76563,0.5 -0.76563,1.51562 0,1.65625 1.85938,1.65625 1.35937,0 2.17187,-0.75 0.8125,-0.76562 0.8125,-2.14062 l 0,-0.92188 z m 8.08622,-0.23437 -3.65625,-4.96875 1.92187,0 2.70313,3.79687 2.6875,-3.79687 1.92187,0 -3.65625,4.96875 3.82813,5.21875 -1.90625,0 -2.875,-4.04688 -2.89063,4.04688 -1.92187,0 3.84375,-5.21875 z m 26.20364,5.21875 -0.25,-1.35938 -0.0937,0 q -0.96875,1.54688 -3.09375,1.54688 -3.625,0 -3.625,-3.71875 l 0,-6.65625 1.6875,0 0,6.5625 q 0,2.40625 2.1875,2.40625 1.5,0 2.1875,-0.85938 0.6875,-0.85937 0.6875,-2.82812 l 0,-5.28125 1.6875,0 0,10.1875 -1.375,0 z m 8.52368,-14.375 q 0.98438,0 0.98438,1.04687 0,0.54688 -0.29688,0.8125 -0.29687,0.26563 -0.6875,0.26563 -1,0 -1,-1.07813 0,-1.04687 1,-1.04687 z m -0.85937,5.53125 -2.48438,-0.20313 0,-1.14062 4.17188,0 0,8.85937 3.26562,0.1875 0,1.14063 -8.14062,0 0,-1.14063 3.1875,-0.1875 0,-7.51562 z m 19.26617,8.39062 0,-1.54687 q 1.78125,0.79687 3.42188,0.79687 2.5625,0 2.5625,-1.5 0,-0.53125 -0.46875,-0.92187 -0.45313,-0.39063 -2.09375,-0.98438 -2.15625,-0.79687 -2.71875,-1.46875 -0.5625,-0.67187 -0.5625,-1.59375 0,-1.26562 1.03125,-1.98437 1.03125,-0.71875 2.85937,-0.71875 1.84375,0 3.4375,0.6875 l -0.5625,1.39062 q -1.6875,-0.67187 -2.96875,-0.67187 -2.1875,0 -2.1875,1.23437 0,0.5625 0.46875,0.90625 0.46875,0.32813 2.15625,0.9375 1.96875,0.71875 2.60938,1.40625 0.64062,0.6875 0.64062,1.6875 0,1.39063 -1.09375,2.1875 -1.07812,0.79688 -3.0625,0.79688 -2.29687,0 -3.46875,-0.64063 z m 19.47681,-4.3125 -7.1875,0 q 0.0781,3.46875 3.1875,3.46875 1.8125,0 3.4375,-0.70312 l 0,1.48437 q -1.53125,0.70313 -3.375,0.70313 -2.26563,0 -3.64063,-1.39063 -1.35937,-1.39062 -1.35937,-3.8125 0,-2.46875 1.25,-3.90625 1.26562,-1.45312 3.375,-1.45312 1.96875,0 3.14062,1.25 1.17188,1.23437 1.17188,3.3125 l 0,1.04687 z m -7.14063,-1.375 5.3125,0 q 0,-2.82812 -2.53125,-2.82812 -2.54687,0 -2.78125,2.82812 z m 17.99244,-3.8125 -0.45313,1.53125 q -1.14062,-0.40625 -2.07812,-0.40625 -1.51563,0 -2.34375,0.85938 -0.8125,0.85937 -0.8125,2.46875 l 0,5.5 -1.6875,0 0,-10.1875 1.375,0 0.20312,1.85937 0.0625,0 q 0.71875,-1.09375 1.51563,-1.5625 0.8125,-0.48437 1.98437,-0.48437 1.09375,0 2.23438,0.42187 z m 5.99246,9.95313 -3.85938,-10.1875 1.73438,0 2.23437,6.04687 q 0.78125,2.14063 0.92188,3.01563 l 0.0625,0 q 0.0625,-0.40625 0.9375,-3.01563 l 2.21875,-6.04687 1.75,0 -3.85938,10.1875 -2.14062,0 z m 16.74246,-4.76563 -7.1875,0 q 0.0781,3.46875 3.1875,3.46875 1.8125,0 3.4375,-0.70312 l 0,1.48437 q -1.53125,0.70313 -3.375,0.70313 -2.26563,0 -3.64063,-1.39063 -1.35937,-1.39062 -1.35937,-3.8125 0,-2.46875 1.25,-3.90625 1.26562,-1.45312 3.375,-1.45312 1.96875,0 3.14062,1.25 1.17188,1.23437 1.17188,3.3125 l 0,1.04687 z m -7.14063,-1.375 5.3125,0 q 0,-2.82812 -2.53125,-2.82812 -2.54687,0 -2.78125,2.82812 z"
       id="path19"
       inkscape:connector-curvature="0"
       style="fill:#f3f3f3;fill-rule:nonzero" />
    <path
       d="m 300.9375,339.99173 -2.48438,-0.1875 0,-1.14062 4.1875,0 0,13.10937 3.26563,0.1875 0,1.14063 -8.15625,0 0,-1.14063 3.1875,-0.1875 0,-11.78125 z m 11.91431,13.29688 q -2,0 -3.29688,-1.4375 -1.29687,-1.45313 -1.29687,-3.85938 0,-2.4375 1.25,-3.84375 1.26562,-1.42187 3.40625,-1.42187 2.01562,0 3.29687,1.4375 1.29688,1.4375 1.29688,3.82812 0,2.45313 -1.26563,3.875 -1.26562,1.42188 -3.39062,1.42188 z m 0.0469,-1.40625 q 2.875,0 2.875,-3.89063 0,-3.85937 -2.90625,-3.85937 -2.85937,0 -2.85937,3.85937 0,3.89063 2.89062,3.89063 z m 15.33621,-8.60938 -0.57812,1.46875 q -1.39063,-0.53125 -2.48438,-0.53125 -3.4375,0 -3.4375,3.82813 0,3.76562 3.34375,3.76562 1.45313,0 2.98438,-0.5625 l 0,1.48438 q -1.25,0.5625 -3.0625,0.5625 -2.375,0 -3.70313,-1.34375 -1.3125,-1.35938 -1.3125,-3.875 0,-2.60938 1.34375,-3.96875 1.34375,-1.375 3.78125,-1.375 1.65625,0 3.125,0.54687 z m 9.64872,9.82813 -0.34375,-1.40625 -0.0625,0 q -0.71875,0.89062 -1.46875,1.25 -0.75,0.34375 -1.9375,0.34375 -1.51563,0 -2.375,-0.79688 -0.85938,-0.79687 -0.85938,-2.23437 0,-3.07813 4.73438,-3.23438 l 1.89062,-0.0625 0,-0.64062 q 0,-2.1875 -2.26562,-2.1875 -1.375,0 -3.04688,0.76562 l -0.59375,-1.28125 q 1.82813,-0.89062 3.5625,-0.89062 2.10938,0 3.04688,0.8125 0.9375,0.79687 0.9375,2.57812 l 0,6.98438 -1.21875,0 z m -0.45313,-4.98438 -1.5,0.0625 q -1.8125,0.0781 -2.57812,0.57813 -0.76563,0.5 -0.76563,1.51562 0,1.65625 1.85938,1.65625 1.35937,0 2.17187,-0.75 0.8125,-0.76562 0.8125,-2.14062 l 0,-0.92188 z m 8.28931,-8.125 -2.48438,-0.1875 0,-1.14062 4.1875,0 0,13.10937 3.26563,0.1875 0,1.14063 -8.15625,0 0,-1.14063 3.1875,-0.1875 0,-11.78125 z m 14.49243,13.10938 0,-6.5625 q 0,-2.40625 -2.21875,-2.40625 -2.84375,0 -2.84375,3.6875 l 0,5.28125 -1.6875,0 0,-14.4375 1.6875,0 0,4.28125 -0.0781,1.34375 0.0937,0 q 0.95313,-1.5625 3.125,-1.5625 3.60938,0 3.60938,3.71875 l 0,6.65625 -1.6875,0 z m 8.61746,0.1875 q -2,0 -3.29687,-1.4375 -1.29688,-1.45313 -1.29688,-3.85938 0,-2.4375 1.25,-3.84375 1.26563,-1.42187 3.40625,-1.42187 2.01563,0 3.29688,1.4375 1.29687,1.4375 1.29687,3.82812 0,2.45313 -1.26562,3.875 -1.26563,1.42188 -3.39063,1.42188 z m 0.0469,-1.40625 q 2.875,0 2.875,-3.89063 0,-3.85937 -2.90625,-3.85937 -2.85938,0 -2.85938,3.85937 0,3.89063 2.89063,3.89063 z m 7.38308,0.76562 0,-1.54687 q 1.78125,0.79687 3.42188,0.79687 2.5625,0 2.5625,-1.5 0,-0.53125 -0.46875,-0.92187 -0.45313,-0.39063 -2.09375,-0.98438 -2.15625,-0.79687 -2.71875,-1.46875 -0.5625,-0.67187 -0.5625,-1.59375 0,-1.26562 1.03125,-1.98437 1.03125,-0.71875 2.85937,-0.71875 1.84375,0 3.4375,0.6875 l -0.5625,1.39062 q -1.6875,-0.67187 -2.96875,-0.67187 -2.1875,0 -2.1875,1.23437 0,0.5625 0.46875,0.90625 0.46875,0.32813 2.15625,0.9375 1.96875,0.71875 2.60938,1.40625 0.64062,0.6875 0.64062,1.6875 0,1.39063 -1.09375,2.1875 -1.07812,0.79688 -3.0625,0.79688 -2.29687,0 -3.46875,-0.64063 z m 18.77369,-0.9375 0,1.28125 q -1.21875,0.29688 -2.34375,0.29688 -3.35938,0 -3.35938,-3.1875 l 0,-5.92188 -2.46875,0 0,-0.85937 2.46875,-0.46875 0.71875,-2.65625 0.96875,0 0,2.71875 4.0625,0 0,1.26562 -4.0625,0 0,5.92188 q 0,1.79687 1.78125,1.79687 0.85938,0 2.23438,-0.1875 z m 7.42993,-9.0625 q 1.17187,0 1.17187,1.29688 0,1.28125 -1.17187,1.28125 -1.1875,0 -1.1875,-1.28125 0,-1.29688 1.1875,-1.29688 z m 0,8.14063 q 1.17187,0 1.17187,1.28125 0,1.29687 -1.17187,1.29687 -1.1875,0 -1.1875,-1.29687 0,-1.28125 1.1875,-1.28125 z m 11.92996,-4.82813 0,0.0469 q 3.34375,0.4375 3.34375,3.23437 0,1.89063 -1.28125,2.96875 -1.26563,1.07813 -3.6875,1.07813 -2.25,0 -3.59375,-0.73438 l 0,-1.57812 q 1.70312,0.89062 3.54687,0.89062 3.28125,0 3.28125,-2.6875 0,-2.39062 -3.53125,-2.39062 l -1.23437,0 0,-1.39063 1.23437,0 q 1.48438,0 2.29688,-0.70312 0.82812,-0.71875 0.82812,-1.875 0,-0.9375 -0.64062,-1.48438 -0.625,-0.5625 -1.6875,-0.5625 -1.64063,0 -3.1875,1.125 l -0.85938,-1.15625 q 1.73438,-1.40625 4.04688,-1.40625 1.92187,0 2.98437,0.92188 1.07813,0.92187 1.07813,2.45312 0,1.28125 -0.76563,2.14063 -0.76562,0.85937 -2.17187,1.10937 z m 10.42996,7.32813 q -2.125,0 -3.21875,-1.79688 -1.09375,-1.79687 -1.09375,-5.1875 0,-6.98437 4.3125,-6.98437 2.15625,0 3.25,1.79687 1.10938,1.79688 1.10938,5.1875 0,6.98438 -4.35938,6.98438 z m 0,-1.4375 q 1.375,0 2.01563,-1.29688 0.64062,-1.3125 0.64062,-4.25 0,-2.92187 -0.64062,-4.21875 -0.64063,-1.3125 -2.01563,-1.3125 -1.34375,0 -1.96875,1.29688 -0.625,1.29687 -0.625,4.23437 0,2.95313 0.625,4.25 0.625,1.29688 1.96875,1.29688 z m 11.19556,1.4375 q -2.125,0 -3.21875,-1.79688 -1.09375,-1.79687 -1.09375,-5.1875 0,-6.98437 4.3125,-6.98437 2.15625,0 3.25,1.79687 1.10937,1.79688 1.10937,5.1875 0,6.98438 -4.35937,6.98438 z m 0,-1.4375 q 1.375,0 2.01562,-1.29688 0.64063,-1.3125 0.64063,-4.25 0,-2.92187 -0.64063,-4.21875 -0.64062,-1.3125 -2.01562,-1.3125 -1.34375,0 -1.96875,1.29688 -0.625,1.29687 -0.625,4.23437 0,2.95313 0.625,4.25 0.625,1.29688 1.96875,1.29688 z m 11.19556,1.4375 q -2.125,0 -3.21875,-1.79688 -1.09375,-1.79687 -1.09375,-5.1875 0,-6.98437 4.3125,-6.98437 2.15625,0 3.25,1.79687 1.10937,1.79688 1.10937,5.1875 0,6.98438 -4.35937,6.98438 z m 0,-1.4375 q 1.375,0 2.01562,-1.29688 0.64063,-1.3125 0.64063,-4.25 0,-2.92187 -0.64063,-4.21875 -0.64062,-1.3125 -2.01562,-1.3125 -1.34375,0 -1.96875,1.29688 -0.625,1.29687 -0.625,4.23437 0,2.95313 0.625,4.25 0.625,1.29688 1.96875,1.29688 z"
       id="path21"
       inkscape:connector-curvature="0"
       style="fill:#b6d7a8;fill-rule:nonzero" />
  </g>
</svg>
